<svg width="364" height="67" viewBox="0 0 364 67" fill="none" xmlns="http://www.w3.org/2000/svg">
<path d="M62.4287 33.4286C62.4287 16.4134 49.8359 2.33331 33.4559 0V4.47943C16.4268 4.47943 2.33522 17.0619 0 33.4286H4.48309C4.48309 50.4437 17.0759 64.5238 33.4559 66.8571V62.3777C50.4849 62.3777 64.5766 49.7952 66.9118 33.4286H62.4287Z" fill="#FC6200"/>
<path d="M43.9076 39.4591C41.82 43.0627 37.919 45.4896 33.4493 45.4896C26.7849 45.4896 21.3784 40.0875 21.3784 33.4286C21.3784 26.7696 26.7849 21.3675 33.4493 21.3675C37.919 21.3675 41.82 23.7878 43.9076 27.398L50.4382 23.6273C47.1997 17.2358 40.8966 12.6694 33.456 11.8471V14.1269C22.275 14.1269 13.0613 22.5643 11.8636 33.4286H14.1452C14.1452 44.6004 22.5962 53.8066 33.4627 55.0034V52.7235C40.7627 52.7235 47.213 49.1333 51.1541 43.6243L43.921 39.4524L43.9076 39.4591Z" fill="white"/>
<path d="M87.969 29.8184C88.3638 29.1832 88.8523 28.6149 89.4277 28.1135C90.0031 27.6121 90.6589 27.1775 91.3882 26.8165C92.1176 26.4554 92.9138 26.1813 93.777 25.9874C94.6401 25.7936 95.5501 25.7 96.5137 25.7C98.0928 25.7 99.431 25.9005 100.522 26.3084C101.612 26.7162 102.476 27.231 103.111 27.8528C103.747 28.4745 104.148 29.1364 104.316 29.8317H112.231C112.037 28.1336 111.368 26.5357 110.217 25.0514C109.066 23.5672 107.42 22.3705 105.286 21.4545C103.151 20.5453 100.475 20.0906 97.2631 20.0906C95.5568 20.0906 93.9309 20.231 92.3718 20.5052C90.8128 20.7793 89.3541 21.1938 88.0025 21.7487C86.6509 22.2969 85.4197 22.9856 84.3156 23.8146C83.2116 24.6436 82.2615 25.593 81.4719 26.6694C80.6823 27.7458 80.0667 28.9492 79.6385 30.2663C79.2036 31.5834 78.9895 33.0342 78.9895 34.6187C78.9895 37.0389 79.6184 39.165 80.8764 40.9969C82.1343 42.8288 83.9209 44.2528 86.236 45.2557C88.5512 46.2652 91.2945 46.7666 94.4595 46.7666C97.2898 46.7666 99.8459 46.3922 102.121 45.6368C104.403 44.8813 106.31 43.7714 107.862 42.314C109.408 40.8498 110.505 39.0914 111.154 37.0322H103.238C102.803 37.868 102.188 38.5967 101.385 39.2051C100.582 39.8135 99.6318 40.2949 98.5411 40.6425C97.4504 40.9902 96.2594 41.164 94.9613 41.164C93.3287 41.164 91.8968 40.8966 90.6589 40.355C89.421 39.8135 88.4575 39.0313 87.7616 38.0017C87.0657 36.9721 86.7178 35.7218 86.7178 34.2644C86.7178 33.4286 86.8248 32.633 87.039 31.8909C87.2531 31.1488 87.5609 30.4602 87.9556 29.825L87.969 29.8184Z" fill="white"/>
<path d="M145.045 20.5988H138.32L135.871 34.5853C135.657 35.9024 135.195 37.059 134.486 38.0552C133.777 39.0513 132.867 39.8202 131.749 40.3751C130.632 40.9233 129.347 41.2041 127.882 41.2041C126.35 41.2041 125.078 40.9701 124.068 40.5021C123.064 40.0341 122.342 39.3388 121.907 38.4162C121.472 37.4936 121.365 36.3837 121.585 35.0934L124.175 20.6054H116.728L114.279 34.5184C113.824 37.1325 114.071 39.3522 115.015 41.1841C115.965 43.016 117.484 44.4066 119.585 45.356C121.686 46.3053 124.208 46.7733 127.159 46.7733C130.11 46.7733 132.613 46.3388 134.734 45.4763C136.855 44.6138 138.568 43.3101 139.879 41.5585C141.184 39.8068 142.067 37.6139 142.522 34.9797L145.038 20.5988H145.045Z" fill="white"/>
<path d="M158.039 20.5988L141.023 46.2652H149.12L152.372 41.1239H165.694L167.179 46.2652H174.767L166.778 20.5988H158.032H158.039ZM155.804 35.6951L161.518 26.6694L164.128 35.6951H155.804Z" fill="white"/>
<path d="M204.088 20.5988H175.302L174.332 26.168H184.984L181.385 46.2652H188.832L192.392 26.168H203.077L204.088 20.5988Z" fill="white"/>
<path d="M230.116 21.4077C228.932 20.8662 227.547 20.5988 225.961 20.5988H207.038L202.542 46.2652H209.956L211.542 37.2796H220.789C222.033 37.2796 222.917 37.5002 223.432 37.9415C223.947 38.3828 224.268 39.1917 224.382 40.3684L225.105 46.2652H232.626L231.655 39.3656C231.488 38.2156 231.214 37.2863 230.826 36.5776C230.444 35.8689 229.829 35.314 228.992 34.9062C228.564 34.6989 228.035 34.5251 227.413 34.3847C228.437 34.1908 229.34 33.8632 230.123 33.3952C231.334 32.6732 232.258 31.7706 232.893 30.6808C233.529 29.591 233.843 28.4478 233.843 27.2444C233.843 25.8805 233.522 24.6971 232.873 23.7009C232.224 22.7048 231.307 21.9426 230.123 21.401L230.116 21.4077ZM224.308 31.3494C223.78 31.5633 223.231 31.6703 222.656 31.6703H212.545L213.482 26.2081H223.666C224.409 26.2081 225.011 26.3886 225.466 26.7496C225.921 27.1106 226.148 27.699 226.148 28.508C226.148 29.2501 225.975 29.8585 225.627 30.3265C225.279 30.7945 224.837 31.1354 224.315 31.3494H224.308Z" fill="white"/>
<path d="M262.562 21.5882C260.247 20.5921 257.497 20.0973 254.305 20.0973C252.626 20.0973 251 20.2377 249.427 20.5118C247.855 20.786 246.389 21.2072 245.038 21.7688C243.686 22.3304 242.455 23.0257 241.351 23.8547C240.247 24.6837 239.297 25.6398 238.507 26.7296C237.718 27.8193 237.102 29.0228 236.674 30.3398C236.239 31.6569 236.025 33.1077 236.025 34.6922C236.025 37.1125 236.647 39.2252 237.898 41.037C239.143 42.8488 240.923 44.2528 243.238 45.2624C245.553 46.2719 248.303 46.7733 251.495 46.7733C253.201 46.7733 254.827 46.6329 256.386 46.3588C257.945 46.0847 259.404 45.6635 260.755 45.1019C262.107 44.5403 263.338 43.845 264.442 43.016C265.546 42.1869 266.496 41.2309 267.286 40.1411C268.076 39.0513 268.691 37.8479 269.119 36.5308C269.554 35.2137 269.768 33.7629 269.768 32.1784C269.768 29.7582 269.146 27.6388 267.895 25.8136C266.65 23.9951 264.87 22.5844 262.555 21.5882H262.562ZM261.752 34.9597C261.538 35.7152 261.23 36.4038 260.836 37.0256C260.441 37.6473 259.946 38.2156 259.364 38.7304C258.775 39.2452 258.119 39.6798 257.383 40.0408C256.654 40.4018 255.851 40.676 254.974 40.8698C254.098 41.0637 253.154 41.1573 252.151 41.1573C250.444 41.1573 248.959 40.8832 247.688 40.3283C246.416 39.7801 245.439 38.9845 244.757 37.9549C244.074 36.9253 243.733 35.6884 243.733 34.251C243.733 33.3885 243.84 32.5862 244.054 31.8441C244.268 31.102 244.59 30.4134 245.011 29.7782C245.433 29.1431 245.934 28.5748 246.523 28.0734C247.112 27.572 247.768 27.1441 248.504 26.7964C249.233 26.4488 250.029 26.1813 250.893 25.9874C251.756 25.7936 252.679 25.7 253.663 25.7C255.389 25.7 256.881 25.9741 258.139 26.529C259.397 27.0772 260.367 27.8661 261.056 28.8824C261.739 29.8986 262.08 31.1421 262.08 32.5996C262.08 33.4153 261.973 34.1975 261.759 34.953L261.752 34.9597Z" fill="white"/>
<path d="M299.838 22.1632C298.601 21.1202 296.881 20.5988 294.673 20.5988H274.994L270.498 46.2652H290.431C292.492 46.2652 294.285 45.951 295.81 45.3158C297.336 44.6807 298.52 43.7848 299.37 42.6349C300.22 41.4849 300.648 40.1411 300.648 38.6101C300.648 37.4334 300.347 36.4238 299.752 35.5748C299.149 34.7257 298.313 34.0504 297.236 33.5624C296.68 33.3083 296.078 33.1211 295.416 32.9941C296.359 32.8604 297.216 32.6063 297.992 32.2319C299.169 31.6703 300.079 30.8881 300.728 29.8919C301.377 28.8957 301.699 27.7792 301.699 26.529C301.699 24.657 301.083 23.2062 299.845 22.1632H299.838ZM281.471 26.168H291.943C292.612 26.168 293.161 26.3485 293.582 26.7095C294.004 27.0705 294.211 27.5519 294.211 28.1469C294.211 28.6484 294.084 29.0963 293.837 29.4774C293.582 29.8585 293.228 30.1526 292.773 30.3599C292.318 30.5672 291.762 30.6674 291.12 30.6674H280.688L281.478 26.1746L281.471 26.168ZM292.625 39.3254C292.338 39.76 291.943 40.0943 291.441 40.3283C290.939 40.569 290.364 40.6893 289.715 40.6893H278.922L279.785 35.6951H290.939C291.394 35.6951 291.776 35.782 292.09 35.9625C292.405 36.143 292.639 36.3971 292.813 36.718C292.98 37.0389 293.06 37.42 293.06 37.8479C293.06 38.3961 292.92 38.8909 292.625 39.3188V39.3254Z" fill="#FC6200"/>
<path d="M302.588 46.2652H328.309L329.32 40.6559H311.08L311.869 36.0561H328.744L329.641 30.7009H312.806L313.595 26.2081H331.836L332.879 20.5988H307.159L302.588 46.2652Z" fill="#FC6200"/>
<path d="M335.221 20.5988L334.244 26.168H344.897L341.297 46.2652H348.744L352.311 26.168H362.996L364 20.5988H335.221Z" fill="#FC6200"/>
</svg>
